# xmcd
#
# Track frame offsets: 
#        182
#        13847
#        30720
#        39160
#        51192
#        71525
#        83085
#        97990
#        114610
#        124935
#        133937
#        146437
#        164747
#        181590
#        190032
#        201442
#        214962
#        231227
#        240382
#        253040
#
# Disc length: 3529 seconds
#
# Revision: 2
# Processed by: cddbd v1.5.2PL0 Copyright (c) Steve Scherf et al.
# Submitted via: ExactAudioCopy v1.1
#
DISCID=1d0dc714
DTITLE=Various Artist - The Story of Tango
DYEAR=1997
DGENRE=Tango
TTITLE0=Jose Basso - La Cumparsita
TTITLE1=Sexteto Mayor - El Choclo
TTITLE2=Francisco Varela - De Vuelta y Media
TTITLE3=Anibal Troilo - Quejas de Bandoneon
TTITLE4=Raul Garello - Verano Porteno
TTITLE5=Osvaldo Pugliese - La Cachila
TTITLE6=Carlos Gardel - El Dia Que Me Quieras
TTITLE7=Mariano Mores - Grisel
TTITLE8=Francisco Canaro - La Punalada
TTITLE9=Florindo Sassone - Yira, Yira
TTITLE10=Osvaldo Pugliese - La Yumba
TTITLE11=Sexteto Mayor - Adios Nonino
TTITLE12=Raul Garello - Margarita de Agosto
TTITLE13=Jose Basso - El Firulete
TTITLE14=Mariano Mores - Taquito Militar
TTITLE15=Francisco Canaro - La Tablada
TTITLE16=Anibal Troilo - Danzarin
TTITLE17=Francisco Varela - Palomita Blanca
TTITLE18=Florindo Sassone - Adios Muchachos
TTITLE19=Carlos Gardel - Mi Buenos Aires Querido
EXTD=
EXTT0=
EXTT1=
EXTT2=
EXTT3=
EXTT4=
EXTT5=
EXTT6=
EXTT7=
EXTT8=
EXTT9=
EXTT10=
EXTT11=
EXTT12=
EXTT13=
EXTT14=
EXTT15=
EXTT16=
EXTT17=
EXTT18=
EXTT19=
PLAYORDER=
